<svg width="12" height="12" viewBox="0 0 12 12" fill="none" xmlns="http://www.w3.org/2000/svg">
<g clip-path="url(#clip0)">
<rect x="1" y="1" width="10" height="10" fill="white"/>
<rect y="1" width="1" height="10" fill="black"/>
<rect x="11" y="1" width="1" height="10" fill="black"/>
<rect x="1" y="1" width="1" height="10" transform="rotate(-90 1 1)" fill="black"/>
<rect x="1" y="12" width="1" height="10" transform="rotate(-90 1 12)" fill="black"/>
<line x1="3.5" y1="3" x2="3.5" y2="11" stroke="#E76E55"/>
<line x1="1.5" y1="5" x2="1.5" y2="4" stroke="#E76E55"/>
<line x1="5.5" y1="5" x2="5.5" y2="4" stroke="#E76E55"/>
<line x1="4.5" y1="4" x2="4.5" y2="3" stroke="#E76E55"/>
<line x1="3.5" y1="3" x2="3.5" y2="2" stroke="#E76E55"/>
<line x1="2.5" y1="4" x2="2.5" y2="3" stroke="#E76E55"/>
<line x1="8.5" y1="9" x2="8.5" y2="1" stroke="#92CC41"/>
<line x1="10.5" y1="7" x2="10.5" y2="8" stroke="#92CC41"/>
<line x1="6.5" y1="7" x2="6.5" y2="8" stroke="#92CC41"/>
<line x1="7.5" y1="8" x2="7.5" y2="9" stroke="#92CC41"/>
<line x1="8.5" y1="9" x2="8.5" y2="10" stroke="#92CC41"/>
<line x1="9.5" y1="8" x2="9.5" y2="9" stroke="#92CC41"/>
</g>
<defs>
<clipPath id="clip0">
<rect width="12" height="12" fill="white"/>
</clipPath>
</defs>
</svg>
