<svg width="24" height="24" viewBox="0 0 24 24" fill="none" xmlns="http://www.w3.org/2000/svg">
<path d="M2 0H22V2H24V22H22V24H2V22H0V2H2V0Z" fill="#9C4A00"/>
<rect x="2" y="2" width="20" height="20" fill="#E79C21"/>
<path d="M3.42857 4.85716V3.42859H4.85714V4.85716H3.42857Z" fill="#212529"/>
<path d="M19.1429 4.85716V3.42859H20.5714V4.85716H19.1429Z" fill="#212529"/>
<path d="M7.71429 6.28573V4.85716H14.8571V6.28573H16.2857V7.7143H17.7143V13.4286H14.8571V16.2857H13.4286V17.7143H14.8571V20.5714H12V19.1429H10.5714V16.2857H12V14.8572H10.5714V12H12V10.5714H13.4286V7.7143H10.5714V12H7.71429V10.5714H6.28571V6.28573H7.71429Z" fill="#212529"/>
<path d="M3.42857 20.5714V19.1429H4.85714V20.5714H3.42857Z" fill="#212529"/>
<path d="M19.1429 20.5714V19.1429H20.5714V20.5714H19.1429Z" fill="#212529"/>
<path d="M9.14286 10.5714H6.28572V6.28569H7.71429V4.85712H14.8571V6.28569H16.2857V12H13.4286V14.8571H10.5714V12H12V10.5714H13.4286V6.28569H9.14286V10.5714Z" fill="#9C4A00"/>
<path d="M10.5714 16.2857H13.4286V19.1428H10.5714V16.2857Z" fill="#9C4A00"/>
</svg>
