<svg width="10" height="10" viewBox="0 0 10 10" fill="none" xmlns="http://www.w3.org/2000/svg">
<path d="M1 4.5H2M2 3.5H3M3 2.5H7M7 3.5H8M8 4.5H9M4 4.5H6M4 5.5H6M8 5.5H9M2 6.5H3M3 7.5H7M7 6.5H8M1 5.5H2" stroke="#ADAFBC"/>
<path d="M1 7H3V9H1V7Z" fill="#212529"/>
<path d="M2 6H4V8H2V6Z" fill="#212529"/>
<path d="M3 5H5V7H3V5Z" fill="#212529"/>
<path d="M4 4H6V6H4V4Z" fill="#212529"/>
<path d="M5 3H7V5H5V3Z" fill="#212529"/>
<path d="M6 2H8V4H6V2Z" fill="#212529"/>
<path d="M7 1H9V3H7V1Z" fill="#212529"/>
</svg>
